<svg height="31" viewBox="0 0 129 31" width="129" xmlns="http://www.w3.org/2000/svg" xmlns:xlink="http://www.w3.org/1999/xlink"><linearGradient id="a"><stop offset="0" stop-color="#e8382f"/><stop offset=".04221" stop-color="#e83b2e"/><stop offset=".665" stop-color="#eb6013"/><stop offset="1" stop-color="#ed6c00"/><stop offset="1" stop-color="#eb612a"/></linearGradient><linearGradient id="b" x1=".105%" x2="100.129%" xlink:href="#a" y1="49.902%" y2="49.902%"/><linearGradient id="c" x1="-.115%" x2="99.878%" y1="50.061%" y2="50.061%"><stop offset=".00118" stop-color="#e8382f"/><stop offset=".04334" stop-color="#e83b2e"/><stop offset=".6654" stop-color="#eb6013"/><stop offset="1" stop-color="#ed6c00"/><stop offset="1" stop-color="#eb612a"/></linearGradient><linearGradient id="d" x1="-.133%" x2="99.815%" xlink:href="#a" y1="49.674%" y2="49.674%"/><linearGradient id="e" x1=".106%" x2="99.92%" xlink:href="#a" y1="49.94%" y2="49.94%"/><linearGradient id="f" x1=".073%" x2="100.149%" y1="49.94%" y2="49.94%"><stop offset=".00204" stop-color="#e8382f"/><stop offset=".5771" stop-color="#ea542c"/><stop offset=".9994" stop-color="#eb612a"/><stop offset="1" stop-color="#ed6c00"/></linearGradient><g fill="none"><path d="m105.058 10.148c-1.715 0-3.252.644-4.467 1.68v-4.753a1.19 1.19 0 0 0 -1.179-1.179 1.19 1.19 0 0 0 -1.179 1.18v9.898c0 3.752 3.073 6.825 6.825 6.825s6.825-3.073 6.825-6.825-3.073-6.826-6.825-6.826zm0 11.292a4.468 4.468 0 0 1 -4.467-4.466 4.468 4.468 0 0 1 4.467-4.467 4.468 4.468 0 0 1 4.467 4.467 4.468 4.468 0 0 1 -4.467 4.466zm23.477-1.036c-.857-1.072-1.822-1.322-2.465-1.322-1.537-.036-2.716 1.072-3.038 1.394-.786.643-1.786.964-2.787.964a4.468 4.468 0 0 1 -4.467-4.466 4.468 4.468 0 0 1 4.467-4.467 4.449 4.449 0 0 1 4.288 3.287h-6.146a1.19 1.19 0 0 0 -1.18 1.18c0 .643.537 1.179 1.18 1.179h7.504a1.19 1.19 0 0 0 1.18-1.18c0-3.751-3.074-6.825-6.826-6.825s-6.825 3.074-6.825 6.826 3.073 6.825 6.825 6.825a6.643 6.643 0 0 0 4.324-1.572l.107-.108c.215-.25.786-.714 1.287-.714h.035c.072 0 .322 0 .68.429.392.5 1.143.607 1.679.178.5-.357.572-1.108.178-1.608zm-33.268-10.256a1.19 1.19 0 0 0 -1.18 1.18v5.681c0 2.43-2 4.431-4.466 4.431s-4.467-2-4.467-4.43v-5.682a1.19 1.19 0 0 0 -1.179-1.18 1.19 1.19 0 0 0 -1.18 1.18v5.681c0 3.752 3.074 6.79 6.826 6.79s6.825-3.038 6.825-6.79v-5.681a1.19 1.19 0 0 0 -1.179-1.18zm-40.951 1.322c-.072-.643-.68-1.107-1.322-1.036-1.215.143-1.93.858-2.323 1.716-1.25-1.215-2.93-2.002-4.824-2.002-3.752 0-6.825 3.074-6.825 6.826s3.073 6.825 6.825 6.825c1.715 0 3.252-.643 4.467-1.68v1.037c0 1.25-.5 2.465-1.43 3.359-.857.857-2 1.322-3.18 1.286-2.251-.036-4.145-1.75-4.395-3.966-.072-.644-.68-1.108-1.323-1.037-.643.072-1.107.68-1.036 1.322.393 3.395 3.288 6.004 6.718 6.075h.143a6.648 6.648 0 0 0 4.753-1.965 7.025 7.025 0 0 0 2.108-5.039v-9.29-.036c0-.179 0-.965.572-1.036.679-.108 1.143-.715 1.072-1.358zm-8.47 9.97a4.468 4.468 0 0 1 -4.466-4.466 4.468 4.468 0 0 1 4.467-4.467 4.468 4.468 0 0 1 4.467 4.467 4.468 4.468 0 0 1 -4.467 4.466zm15.224-11.292c-3.753 0-6.826 3.074-6.826 6.826s3.073 6.825 6.826 6.825c3.752 0 6.825-3.073 6.825-6.825s-3.073-6.826-6.825-6.826zm0 11.292a4.468 4.468 0 0 1 -4.467-4.466 4.468 4.468 0 0 1 4.467-4.467 4.468 4.468 0 0 1 4.466 4.467 4.468 4.468 0 0 1 -4.466 4.466zm9.54-15.58a1.19 1.19 0 0 0 -1.179 1.18v15.58c0 .643.536 1.179 1.18 1.179a1.19 1.19 0 0 0 1.179-1.18v-15.579a1.19 1.19 0 0 0 -1.18-1.179zm5.075 10.935 5.003-4.288c.5-.429.536-1.18.107-1.68-.43-.5-1.18-.536-1.68-.107l-6.039 5.217c-.25.215-.393.536-.393.894 0 .357.143.679.393.893l6.432 5.539c.215.179.5.286.786.286.322 0 .68-.143.894-.43.429-.5.357-1.25-.143-1.679z" fill="#eb612a"/><path d="m36.627 7.897a3.652 3.652 0 0 0 -.893-1.286 4.303 4.303 0 0 0 -3.002-1.215 4.204 4.204 0 0 0 -2.894 1.143c-.25.215-.465.43-.643.68a8.084 8.084 0 0 0 -.894 1.357c-.214.429-.393.858-.571 1.287a11.768 11.768 0 0 1 1.465 2.823c.25-.072.464-.143.714-.18l.108-.32c.25-.787.571-1.537.929-2.145.214-.357.429-.679.643-.893.25-.322.679-.536 1.143-.536.787 0 1.43.643 1.43 1.43 0 .035.036.428-.107.75-.072.214-.215.357-.322.464-.072.072-.107.107-.143.107l-.036.036-.143.143c-.143.107-.214.286-.25.465-.036.357.25.679.608.714h.429a2.747 2.747 0 0 0 1.214-.428c.5-.322 1.001-.894 1.251-1.68a3.749 3.749 0 0 0 -.036-2.716z" fill="url(#b)"/><path d="m30.696 12.364c-.5 0-.965.071-1.43.25a12.421 12.421 0 0 0 -7.182-7.325c.964-1.072 2.287-1.608 2.287-1.608s-2.466-1-4.646.893c0-.715 1.25-3.002 3.11-4.431-4.932-.357-6.505 3.573-6.755 4.431-4.574.643-8.326 3.788-9.862 8.04-.465-.143-.93-.25-1.43-.25a4.468 4.468 0 0 0 -4.466 4.467 4.468 4.468 0 0 0 4.466 4.467c.43 0 .858-.072 1.287-.18.393 1.43.929 2.86 1.68 4.146h1.143c-.072-.393-.608-1.537-.608-2.93.036-1.573.465-2.93 1.144-3.717a5.379 5.379 0 0 1 2.072-7.254c2.037-1.179 4.574-.893 6.254.608 1.715-1.465 4.216-1.787 6.253-.608 2.537 1.466 3.43 4.682 2.073 7.254.679.787 1.143 2.144 1.143 3.717.036 1.393-.536 2.537-.607 2.93h1.143a15.537 15.537 0 0 0 1.68-4.145c.393.107.822.179 1.286.179a4.468 4.468 0 0 0 4.467-4.467c-.036-2.466-2.037-4.467-4.502-4.467z" fill="url(#c)"/><path d="m19.475 20.011c0-.679-.786-1.215-1.75-1.215-.966 0-1.752.536-1.752 1.215 0 .572.572 1.036 1.322 1.18.036.785.215 1.357.43 1.357.214 0 .392-.572.428-1.358.75-.143 1.322-.607 1.322-1.179z" fill="url(#d)"/><path d="m3.502.107c-2.252 0-3.252 1.823-3.252 4.11h6.754c2.251 0-.715-4.11-3.502-4.11z" fill="url(#e)" transform="translate(5.003 23.227)"/><path d="m21.87.107c2.25 0 3.251 1.823 3.251 4.11h-6.754c-2.215 0 .75-4.11 3.502-4.11z" fill="url(#f)" transform="translate(5.003 23.227)"/><path d="m32.947 14.294c.393.643.679 1.572.679 2.644 0 .893-.215 1.75-.5 2.358.714-.285 1.322-1.286 1.322-2.465 0-1.287-.715-2.359-1.501-2.537zm-30.446 0c-.393.643-.679 1.572-.679 2.644 0 .893.215 1.75.5 2.358-.714-.285-1.321-1.286-1.321-2.465 0-1.287.714-2.359 1.5-2.537z" fill="#fff"/></g></svg>